<?xml version="1.0" encoding="utf-8"?>
<svg version="1.1"
	xmlns="http://www.w3.org/2000/svg"
	xmlns:xlink="http://www.w3.org/1999/xlink"
	xml:space="google"
	x="0px"
	y="0px"
	width="24px"
	height="24px"
	viewBox="0 0 24 24"
	enable-background="new 0 0 24 24">
	<g id="Bounding_Boxes"><path fill="none" d="M0,0h24v24H0V0z"/></g>
	<g>
		<path d="M6,19c0,1.1,0.9,2,2,2h8c1.1,0,2-0.9,2-2V9c0-1.1-0.9-2-2-2H8C6.9,7,6,7.9,6,9V19z M9.17,11.17L9.17,11.17
			c0.39-0.39,1.02-0.39,1.41,0L12,12.59l1.42-1.42c0.39-0.39,1.02-0.39,1.41,0l0,0c0.39,0.39,0.39,1.02,0,1.41L13.41,14l1.42,1.42
			c0.39,0.39,0.39,1.02,0,1.41l0,0c-0.39,0.39-1.02,0.39-1.41,0L12,15.41l-1.42,1.42c-0.39,0.39-1.02,0.39-1.41,0l0,0
			c-0.39-0.39-0.39-1.02,0-1.41L10.59,14l-1.42-1.42C8.78,12.2,8.78,11.56,9.17,11.17z M15.5,4l-0.71-0.71
			C14.61,3.11,14.35,3,14.09,3H9.91C9.65,3,9.39,3.11,9.21,3.29L8.5,4H6C5.45,4,5,4.45,5,5v0c0,0.55,0.45,1,1,1h12c0.55,0,1-0.45,1-1
			v0c0-0.55-0.45-1-1-1H15.5z"/>
	</g>
</svg>
